<svg xmlns="http://www.w3.org/2000/svg"  viewBox="800 400 800 700">
  <g fill="#188188">
    <path d="M858.287 926.32c11.978 0 21.152 2.13 27.526 6.392 6.373 4.262 9.56 10.884 9.56 19.867 0 5.606-1.287 10.155-3.858 13.648-2.573 3.495-6.277 6.239-11.114 8.235 1.612 1.997 3.3 4.281 5.067 6.853a196.082 196.082 0 015.241 8.063 159.15 159.15 0 015.01 8.753 216.458 216.458 0 014.492 8.926h-20.085c-1.465-2.609-2.95-5.259-4.452-7.947a190.653 190.653 0 00-4.623-7.831 215.6 215.6 0 00-4.683-7.199 78.482 78.482 0 00-4.625-6.161h-8.868v29.139h-17.967v-78.664a101.969 101.969 0 0112.151-1.612c4.183-.307 7.926-.462 11.228-.462zm1.037 15.318c-1.307 0-2.477.04-3.513.115-1.036.078-2.015.155-2.937.23v21.652h5.067c6.756 0 11.593-.844 14.512-2.533 2.917-1.688 4.377-4.567 4.377-8.639 0-3.915-1.479-6.697-4.434-8.35-2.957-1.649-7.314-2.475-13.072-2.475zM985.669 967.092c0 6.834-1.019 12.842-3.052 18.024-2.035 5.183-4.819 9.521-8.35 13.015-3.533 3.494-7.736 6.124-12.611 7.89-4.877 1.765-10.117 2.648-15.721 2.648-5.453 0-10.596-.884-15.433-2.648-4.837-1.766-9.061-4.396-12.669-7.89-3.61-3.493-6.45-7.832-8.523-13.015-2.073-5.183-3.109-11.19-3.109-18.024 0-6.833 1.074-12.842 3.225-18.025 2.149-5.183 5.048-9.539 8.696-13.072 3.646-3.53 7.87-6.18 12.669-7.946 4.798-1.766 9.848-2.649 15.146-2.649 5.451 0 10.596.884 15.433 2.649 4.837 1.767 9.059 4.416 12.669 7.946 3.608 3.533 6.45 7.89 8.523 13.072 2.071 5.183 3.107 11.192 3.107 18.025zm-60.926 0c0 3.915.479 7.448 1.439 10.596.959 3.149 2.341 5.855 4.146 8.119a18.294 18.294 0 006.623 5.241c2.609 1.229 5.604 1.843 8.983 1.843 3.3 0 6.277-.614 8.926-1.843a18.216 18.216 0 006.68-5.241c1.803-2.264 3.185-4.97 4.146-8.119.959-3.147 1.44-6.681 1.44-10.596 0-3.916-.48-7.467-1.44-10.654-.961-3.185-2.343-5.911-4.146-8.177a18.234 18.234 0 00-6.68-5.24c-2.649-1.228-5.625-1.843-8.926-1.843-3.38 0-6.374.633-8.983 1.9a18.923 18.923 0 00-6.623 5.298c-1.805 2.266-3.187 4.992-4.146 8.177-.961 3.187-1.439 6.7-1.439 10.539zM1037.036 1008.669c-12.977 0-22.862-3.608-29.657-10.826-6.795-7.217-10.193-17.467-10.193-30.751 0-6.604 1.037-12.497 3.109-17.68 2.073-5.183 4.913-9.56 8.523-13.13 3.608-3.57 7.908-6.276 12.899-8.119 4.99-1.843 10.403-2.765 16.24-2.765 3.378 0 6.45.25 9.214.749 2.764.5 5.183 1.076 7.256 1.728 2.073.653 3.801 1.324 5.183 2.016 1.382.69 2.379 1.229 2.995 1.612l-5.183 14.512c-2.458-1.305-5.318-2.419-8.581-3.34-3.265-.922-6.968-1.382-11.114-1.382-2.764 0-5.471.46-8.12 1.382-2.649.921-4.992 2.4-7.026 4.434-2.035 2.036-3.667 4.665-4.895 7.89-1.229 3.225-1.843 7.141-1.843 11.748 0 3.686.403 7.122 1.209 10.308.806 3.188 2.111 5.932 3.916 8.235 1.803 2.304 4.164 4.128 7.083 5.471 2.917 1.344 6.45 2.016 10.596 2.016 2.609 0 4.953-.153 7.025-.461 2.073-.306 3.916-.671 5.528-1.094 1.613-.422 3.033-.902 4.262-1.44a179.548 179.548 0 003.34-1.497l4.953 14.396c-2.534 1.537-6.104 2.919-10.711 4.146s-9.943 1.842-16.008 1.842zM1122.325 1007.057c-1.618-2.597-3.524-5.404-5.719-8.42a185.275 185.275 0 00-7.096-9.122 136.983 136.983 0 00-7.959-8.813c-2.771-2.812-5.541-5.295-8.311-7.451v33.806h-17.967v-79.815h17.967v29.997a730.112 730.112 0 0014.078-15.225c4.765-5.296 9.167-10.22 13.204-14.772h21.321a540.745 540.745 0 01-16.393 18.658 573.814 573.814 0 01-17.353 18.024c6.385 5.327 12.545 11.644 18.476 18.953 5.932 7.311 11.634 15.371 17.112 24.18h-21.36zM1154.051 1007.057v-79.815h53.901v15.088h-35.935v15.664h31.903v14.742h-31.903v19.233h38.583v15.088h-56.549zM1283.043 927.241v15.318h-24.071v64.497h-17.967V942.56h-24.071v-15.318h66.109zM1294.561 1007.057v-79.815h53.901v15.088h-35.935v15.664h31.903v14.742h-31.903v19.233h38.583v15.088h-56.549zM1400.749 1008.669c-12.977 0-22.861-3.608-29.657-10.826-6.795-7.217-10.192-17.467-10.192-30.751 0-6.604 1.036-12.497 3.109-17.68s4.913-9.56 8.523-13.13c3.607-3.57 7.907-6.276 12.899-8.119 4.99-1.843 10.403-2.765 16.239-2.765 3.378 0 6.449.25 9.214.749 2.764.5 5.183 1.076 7.256 1.728 2.073.653 3.801 1.324 5.183 2.016 1.382.69 2.379 1.229 2.995 1.612l-5.184 14.512c-2.458-1.305-5.317-2.419-8.58-3.34-3.265-.922-6.968-1.382-11.114-1.382-2.765 0-5.471.46-8.12 1.382-2.648.921-4.991 2.4-7.025 4.434-2.035 2.036-3.667 4.665-4.895 7.89-1.229 3.225-1.843 7.141-1.843 11.748 0 3.686.403 7.122 1.209 10.308.807 3.188 2.111 5.932 3.916 8.235 1.804 2.304 4.164 4.128 7.083 5.471 2.917 1.344 6.45 2.016 10.596 2.016 2.61 0 4.953-.153 7.026-.461 2.073-.306 3.916-.671 5.528-1.094 1.612-.422 3.032-.902 4.261-1.44a176.909 176.909 0 003.341-1.497l4.952 14.396c-2.534 1.537-6.104 2.919-10.711 4.146-4.607 1.227-9.944 1.842-16.009 1.842zM1487.129 927.241h17.967v79.815h-17.967v-33.861h-30.176v33.861h-17.967v-79.815h17.967v30.521h30.176v-30.521z"/>
  </g>
  <linearGradient id="a" gradientUnits="userSpaceOnUse" x1="1168.735" y1="552.388" x2="1171.321" y2="804.505">
    <stop offset="0" stop-color="#188188"/>
    <stop offset=".995" stop-color="#23ae8e"/>
  </linearGradient>
  <path fill="url(#a)" d="M1256.237 671.736c0-11.685-4.763-22.309-12.439-30.035h.11c0-128.047-73.848-159.507-73.848-159.507s-73.841 31.458-73.846 159.493c-7.685 7.727-12.452 18.357-12.452 30.049 0 0-1.816 22.429 8.812 45.796 18.987-17.385 46.657-28.347 77.483-28.347 30.785 0 58.419 10.931 77.403 28.269 10.591-23.339 8.777-45.718 8.777-45.718zM1170 590.021c-11.857 0-21.467-9.611-21.467-21.467 0-11.857 9.609-21.467 21.467-21.467s21.466 9.611 21.466 21.467c0 11.856-9.609 21.467-21.466 21.467z"/>
  <linearGradient id="b" gradientUnits="userSpaceOnUse" x1="1168.615" y1="552.39" x2="1171.2" y2="804.506">
    <stop offset="0" stop-color="#188188"/>
    <stop offset=".995" stop-color="#23ae8e"/>
  </linearGradient>
  <path fill="url(#b)" d="M1302.073 577.933l-53.268-30.753c4.069 10.649 7.585 22.538 10.258 35.782l30.08 17.365c8.336 4.813 15.929 17.964 15.929 27.591v119.187c0 9.626-7.593 22.777-15.929 27.59l-10.736 6.2c-39.936 23.057-80.611-29.309-86.749-68.791a105.604 105.604 0 00-21.601-2.232c-7.416 0-14.709.78-21.72 2.256-6.15 39.478-46.816 91.818-86.745 68.767l-10.737-6.2c-8.337-4.813-15.929-17.964-15.929-27.59V627.917c0-9.626 7.592-22.778 15.929-27.591l30.217-17.45c2.68-13.249 6.2-25.139 10.276-35.789l-53.421 30.845c-16.184 9.342-28.858 31.299-28.858 49.984v119.187c0 18.686 12.675 40.643 28.858 49.983l103.213 59.593c8.091 4.671 18.475 7.008 28.859 7.008 10.383 0 20.768-2.337 28.857-7.008l103.217-59.593c16.182-9.343 28.858-31.298 28.858-49.983V627.917c.001-18.685-12.676-40.641-28.858-49.984z"/>
</svg>
